<svg width="42" height="41" viewBox="0 0 42 41" fill="none" xmlns="http://www.w3.org/2000/svg">
<circle cx="21" cy="20.5" r="20.5" fill="#191A23"/>
<path d="M31.1602 22.5C31.9886 22.5 32.6602 21.8284 32.6602 21C32.6602 20.1716 31.9886 19.5 31.1602 19.5V22.5ZM10.0995 19.9393C9.51371 20.5251 9.51371 21.4749 10.0995 22.0607L19.6454 31.6066C20.2312 32.1924 21.181 32.1924 21.7668 31.6066C22.3525 31.0208 22.3525 30.0711 21.7668 29.4853L13.2815 21L21.7668 12.5147C22.3525 11.9289 22.3525 10.9792 21.7668 10.3934C21.181 9.80761 20.2312 9.80761 19.6454 10.3934L10.0995 19.9393ZM31.1602 19.5L11.1602 19.5V22.5L31.1602 22.5V19.5Z" fill="white"/>
</svg>
