<svg width="34" height="34" viewBox="0 0 34 34" fill="none" xmlns="http://www.w3.org/2000/svg">
<circle cx="17" cy="17.0024" r="17" fill="black"/>
<path d="M9.31776 25.0024H12.8131V13.6868H9.31776V25.0024Z" fill="#FFC92F"/>
<path d="M9 10.0743C9 11.1899 9.90031 12.0931 11.0654 12.0931C12.1776 12.0931 13.0779 11.1899 13.0779 10.0743C13.0779 8.95869 12.1776 8.00244 11.0654 8.00244C9.90031 8.00244 9 8.95869 9 10.0743Z" fill="#FFC92F"/>
<path d="M22.4517 25.0024H26V18.7868C26 15.7587 25.3115 13.3681 21.7632 13.3681C20.0685 13.3681 18.9034 14.3243 18.4268 15.2274H18.3738V13.6868H15.0374V25.0024H18.5327V19.4243C18.5327 17.9368 18.7975 16.5024 20.6511 16.5024C22.4517 16.5024 22.4517 18.2024 22.4517 19.4774V25.0024Z" fill="#FFC92F"/>
</svg>
